HIERARCHY
ROOT reference
{
  OFFSET -65.3212 -1.93545 -120.338
  CHANNELS 6 Xposition Yposition Zposition Zrotation Xrotation Yrotation
  JOINT Hips
  {
    OFFSET 0 78.7191 0
    CHANNELS 3 Zrotation Xrotation Yrotation
    JOINT Chest
    {
      OFFSET 0 8.7983 -4.7612
      CHANNELS 3 Zrotation Xrotation Yrotation
      JOINT Chest2
      {
        OFFSET 0 8.0291 0.4195
        CHANNELS 3 Zrotation Xrotation Yrotation
        JOINT Chest3
        {
          OFFSET 0 9.9351 -2.2114
          CHANNELS 3 Zrotation Xrotation Yrotation
          JOINT Neck
          {
            OFFSET 0 22.3885 -0.4656
            CHANNELS 3 Zrotation Xrotation Yrotation
            JOINT Head
            {
              OFFSET -0.0001 12.643 3.4389
              CHANNELS 3 Zrotation Xrotation Yrotation
              End Site
              {
                OFFSET 0.0001 17.6655 0.5274
              }
            }
          }
          JOINT LeftCollar
          {
            OFFSET 2.2603 21.606 7.4023
            CHANNELS 3 Zrotation Xrotation Yrotation
            JOINT LeftShoulder
            {
              OFFSET 13.5163 -1.1332 -5.0146
              CHANNELS 3 Zrotation Xrotation Yrotation
              JOINT LeftElbow
              {
                OFFSET -0.0995 -28.05 -0.2431
                CHANNELS 3 Zrotation Xrotation Yrotation
                JOINT LeftWrist
                {
                  OFFSET 0.0679 -23.3996 -0.1402
                  CHANNELS 3 Zrotation Xrotation Yrotation
                  JOINT LeftFinger1
                  {
                    OFFSET 0.7932 -9.069 2.5189
                    CHANNELS 3 Zrotation Xrotation Yrotation
                    JOINT LeftFinger11
                    {
                      OFFSET -0.8272 -3.3923 0.5977
                      CHANNELS 3 Zrotation Xrotation Yrotation
                      JOINT LeftFinger12
                      {
                        OFFSET -0.5649 -2.3158 0.4082
                        CHANNELS 3 Zrotation Xrotation Yrotation
                        End Site
                        {
                          OFFSET -0.4919 -1.6479 0.2673
                        }
                      }
                    }
                  }
                  JOINT LeftFinger2
                  {
                    OFFSET 0.9159 -9.2044 0.2193
                    CHANNELS 3 Zrotation Xrotation Yrotation
                    JOINT LeftFinger21
                    {
                      OFFSET 0.0117 -4.1944 -0.0248
                      CHANNELS 3 Zrotation Xrotation Yrotation
                      JOINT LeftFinger22
                      {
                        OFFSET 0.0071 -2.3249 -0.0142
                        CHANNELS 3 Zrotation Xrotation Yrotation
                        End Site
                        {
                          OFFSET -0.1475 -2.0882 0.0028
                        }
                      }
                    }
                  }
                  JOINT LeftFinger3
                  {
                    OFFSET 0.6113 -8.7231 -2.0637
                    CHANNELS 3 Zrotation Xrotation Yrotation
                    JOINT LeftFinger31
                    {
                      OFFSET -0.1927 -3.8059 -0.2383
                      CHANNELS 3 Zrotation Xrotation Yrotation
                      JOINT LeftFinger32
                      {
                        OFFSET -0.1091 -2.1688 -0.1362
                        CHANNELS 3 Zrotation Xrotation Yrotation
                        End Site
                        {
                          OFFSET -0.2358 -1.9176 -0.0906
                        }
                      }
                    }
                  }
                  JOINT LeftFinger4
                  {
                    OFFSET -0.6151 -8.0947 -3.5641
                    CHANNELS 3 Zrotation Xrotation Yrotation
                    JOINT LeftFinger41
                    {
                      OFFSET -0.4882 -2.341 -0.6462
                      CHANNELS 3 Zrotation Xrotation Yrotation
                      JOINT LeftFinger42
                      {
                        OFFSET -0.3575 -1.7167 -0.4742
                        CHANNELS 3 Zrotation Xrotation Yrotation
                        End Site
                        {
                          OFFSET -0.4187 -1.5237 -0.3496
                        }
                      }
                    }
                  }
                  JOINT LeftFinger0
                  {
                    OFFSET -1.42 -1.8761 1.4223
                    CHANNELS 3 Zrotation Xrotation Yrotation
                    JOINT LeftFinger01
                    {
                      OFFSET -1.1471 -3.4929 2.6334
                      CHANNELS 3 Zrotation Xrotation Yrotation
                      JOINT LeftFinger02
                      {
                        OFFSET -0.823 -2.3 1.6571
                        CHANNELS 3 Zrotation Xrotation Yrotation
                        End Site
                        {
                          OFFSET -0.5822 -1.6914 1.1582
                        }
                      }
                    }
                  }
                }
              }
            }
          }
          JOINT RightCollar
          {
            OFFSET -2.2603 21.606 7.4023
            CHANNELS 3 Zrotation Xrotation Yrotation
            JOINT RightShoulder
            {
              OFFSET -13.5187 -1.1334 -5.0155
              CHANNELS 3 Zrotation Xrotation Yrotation
              JOINT RightElbow
              {
                OFFSET 0.0994 -28.0499 -0.2431
                CHANNELS 3 Zrotation Xrotation Yrotation
                JOINT RightWrist
                {
                  OFFSET -0.0679 -23.3996 -0.1402
                  CHANNELS 3 Zrotation Xrotation Yrotation
                  JOINT RightFinger1
                  {
                    OFFSET -0.7932 -9.0691 2.5189
                    CHANNELS 3 Zrotation Xrotation Yrotation
                    JOINT RightFinger11
                    {
                      OFFSET 0.8272 -3.3923 0.5977
                      CHANNELS 3 Zrotation Xrotation Yrotation
                      JOINT RightFinger12
                      {
                        OFFSET 0.565 -2.3158 0.4082
                        CHANNELS 3 Zrotation Xrotation Yrotation
                        End Site
                        {
                          OFFSET 0.4919 -1.6479 0.2673
                        }
                      }
                    }
                  }
                  JOINT RightFinger2
                  {
                    OFFSET -0.916 -9.2044 0.2193
                    CHANNELS 3 Zrotation Xrotation Yrotation
                    JOINT RightFinger21
                    {
                      OFFSET -0.0117 -4.1944 -0.0248
                      CHANNELS 3 Zrotation Xrotation Yrotation
                      JOINT RightFinger22
                      {
                        OFFSET -0.0071 -2.3249 -0.0142
                        CHANNELS 3 Zrotation Xrotation Yrotation
                        End Site
                        {
                          OFFSET 0.1475 -2.0882 0.0028
                        }
                      }
                    }
                  }
                  JOINT RightFinger3
                  {
                    OFFSET -0.6113 -8.7231 -2.0637
                    CHANNELS 3 Zrotation Xrotation Yrotation
                    JOINT RightFinger31
                    {
                      OFFSET 0.1927 -3.8059 -0.2383
                      CHANNELS 3 Zrotation Xrotation Yrotation
                      JOINT RightFinger32
                      {
                        OFFSET 0.1091 -2.1688 -0.1362
                        CHANNELS 3 Zrotation Xrotation Yrotation
                        End Site
                        {
                          OFFSET 0.2358 -1.9176 -0.0906
                        }
                      }
                    }
                  }
                  JOINT RightFinger4
                  {
                    OFFSET 0.6151 -8.0947 -3.564
                    CHANNELS 3 Zrotation Xrotation Yrotation
                    JOINT RightFinger41
                    {
                      OFFSET 0.4882 -2.341 -0.6462
                      CHANNELS 3 Zrotation Xrotation Yrotation
                      JOINT RightFinger42
                      {
                        OFFSET 0.3574 -1.7166 -0.4742
                        CHANNELS 3 Zrotation Xrotation Yrotation
                        End Site
                        {
                          OFFSET 0.4187 -1.5237 -0.3496
                        }
                      }
                    }
                  }
                  JOINT RightFinger0
                  {
                    OFFSET 1.4199 -1.8761 1.4221
                    CHANNELS 3 Zrotation Xrotation Yrotation
                    JOINT RightFinger01
                    {
                      OFFSET 1.1472 -3.4929 2.6336
                      CHANNELS 3 Zrotation Xrotation Yrotation
                      JOINT RightFinger02
                      {
                        OFFSET 0.8229 -2.3 1.6571
                        CHANNELS 3 Zrotation Xrotation Yrotation
                        End Site
                        {
                          OFFSET 0.5822 -1.6914 1.1582
                        }
                      }
                    }
                  }
                }
              }
            }
          }
        }
      }
    }
    JOINT RightHip
    {
      OFFSET -9.412 3.9771 -0.7758
      CHANNELS 3 Zrotation Xrotation Yrotation
      JOINT RightKnee
      {
        OFFSET -0.7531 -40.938 0
        CHANNELS 3 Zrotation Xrotation Yrotation
        JOINT RightAnkle
        {
          OFFSET 0 -40.1986 0
          CHANNELS 3 Zrotation Xrotation Yrotation
          JOINT RightToe
          {
            OFFSET 0 -4.4182 9.239
            CHANNELS 3 Zrotation Xrotation Yrotation
            End Site
            {
              OFFSET 0 0 6.1981
            }
          }
        }
      }
    }
    JOINT LeftHip
    {
      OFFSET 9.4119 3.9773 -0.7758
      CHANNELS 3 Zrotation Xrotation Yrotation
      JOINT LeftKnee
      {
        OFFSET 0.7532 -40.9383 0
        CHANNELS 3 Zrotation Xrotation Yrotation
        JOINT LeftAnkle
        {
          OFFSET 0 -40.1986 0
          CHANNELS 3 Zrotation Xrotation Yrotation
          JOINT LeftToe
          {
            OFFSET 0 -4.4182 9.239
            CHANNELS 3 Zrotation Xrotation Yrotation
            End Site
            {
              OFFSET 0 0 6.1981
            }
          }
        }
      }
    }
  }
}
MOTION
Frames:	5
Frame Time:	0.0333333
1.42615 -56.0871 -11.2849 0 0 -0 18.7563 3.16448 7.50564 3.04086 20.4543 -1.89762 7.67782 40.7436 -5.64527 7.6777 40.7432 -5.64517 4.69744 -9.39721 -4.53501 -4.58654 -22.2723 -7.72465 20.6779 -11.8648 -1.15549 44.8904 -32.8911 22.6866 81.4529 -67.402 121.907 -14.3977 -50.9433 -50.0882 15.842 -14.7911 3.46048 -0.461793 -5.06675 -2.42876 13.5815 -8.19416 1.70267 18.3927 -11.2826 6.50715 -1.04994 -6.11325 0.593535 15.8169 -9.39192 2.85049 17.6226 -8.61894 2.81969 -1.11163 -7.41617 1.67196 15.6908 -10.1352 3.44869 18.7233 -6.4065 2.46229 -0.124823 -7.95519 5.37516 15.5318 -9.78445 3.87887 -7.36352 -6.25582 -2.75659 -2.76415 -0.176501 0.333101 -4.03966 -5.4488 0.93511 -22.2714 -0.112283 11.5759 -103.621 -21.1528 -54.8128 -3.02216 -31.1703 -5.1144 -27.2948 7.61888 -42.1107 -11.3264 -3.27628 2.1591 -0.0832769 -0.806397 0.979229 -9.8419 -3.3608 -0.130512 -21.0236 -6.8533 -1.29917 0.237887 -1.28013 -0.150093 -18.031 -5.93651 -1.37408 -29.552 -8.87166 -2.9591 0.151222 -0.895465 -0.467254 -17.2908 -6.36609 -1.94564 -32.2344 -6.98748 -1.92682 -0.21736 -0.993931 -1.99511 -17.1173 -6.02119 -2.36069 -3.2788 9.85948 7.63097 0.772675 -0.692714 -0.801193 4.50181 -11.1519 -3.0272 -42.8732 -60.7332 8.34359 163.701 32.3038 -146.288 -13.212 -71.8107 -0.678711 -2.73832 -19.7018 0.664028 19.733 -81.1082 14.4411 -178.941 55.2911 177.908 -29.193 -37.1405 -22.8625 1.05718 -7.85471 0.0725584 
2.06713 -58.3661 -11.4937 0 0 -0 18.5985 -1.14355 7.8484 3.17318 20.702 -1.76005 7.94965 41.24 -5.43944 7.94954 41.2396 -5.43934 4.8237 -8.86325 -4.78897 -4.16066 -22.786 -7.46642 20.3452 -11.8275 -1.25126 45.1898 -33.3467 22.3694 81.1139 -67.467 121.648 -14.801 -50.6954 -50.3858 16.1914 -15.6709 3.93639 -0.484196 -5.24865 -2.54455 14.0482 -8.46218 1.79459 19.0726 -11.6924 7.06816 -1.08063 -6.28851 0.584471 16.2888 -9.65104 2.97299 18.1724 -8.76511 2.88737 -1.14579 -7.64381 1.68693 16.1538 -10.4087 3.58922 19.3875 -6.38642 2.44491 -0.126878 -8.18507 5.48304 15.9827 -10.0354 4.00657 -8.31533 -6.94529 -2.81874 -2.76418 -0.17648 0.33314 -4.03965 -5.44881 0.935185 -22.9348 -0.139091 12.2221 -102.938 -20.2606 -54.2998 -2.25658 -30.7309 -5.49069 -24.8139 6.98227 -41.1365 -10.6274 -2.07304 2.83072 -0.0717491 -0.690656 0.828944 -8.69189 -2.97048 -0.0854918 -18.2281 -6.00073 -0.384051 0.222411 -1.19144 -0.146122 -15.9439 -5.28004 -1.12097 -25.6474 -8.03637 -2.42671 0.147798 -0.872247 -0.4564 -15.3569 -5.69358 -1.63521 -27.7608 -6.72082 -1.77302 -0.213411 -0.975095 -1.96238 -15.1764 -5.38389 -2.00593 -4.10206 9.83933 7.45321 0.772664 -0.692675 -0.801185 4.07717 -10.0385 -2.76348 -41.9121 -58.7551 13.0496 164.67 29.6143 -145.246 -5.83515 -74.1296 6.51111 -2.74552 -19.7532 0.664442 24.3684 -80.5317 18.2218 -179.081 51.8608 178.054 -28.705 -36.2675 -23.8734 1.25037 -9.26693 0.10132 
2.43724 -60.0223 -11.6981 0 0 -0 18.7599 -4.18025 8.10654 3.12301 20.8794 -1.6066 7.79304 41.6086 -5.10108 7.79295 41.6083 -5.10099 4.88381 -8.70721 -4.875 -4.54873 -23.1196 -7.25123 20.1585 -11.8318 -1.22829 45.0623 -34.2061 21.6162 81.8306 -67.8785 122.603 -15.5656 -50.1731 -51.4605 16.4604 -16.3423 4.29841 -0.501598 -5.38675 -2.63405 14.4049 -8.66622 1.86625 19.5927 -12.0034 7.49965 -1.10428 -6.42225 0.576543 16.6495 -9.84813 3.06799 18.5924 -8.87577 2.94105 -1.17206 -7.81761 1.69692 16.5079 -10.6166 3.6981 19.8946 -6.37009 2.43379 -0.128639 -8.36103 5.5642 16.3633 -10.2557 4.14666 -9.04557 -7.46646 -2.88037 -2.76422 -0.176457 0.333247 -4.03968 -5.44881 0.935045 -23.128 -0.152282 12.5925 -102.645 -19.8048 -54.7599 -1.88757 -30.2759 -7.99375 -21.8866 5.18057 -39.221 -9.88516 -0.904968 3.47231 -0.0602317 -0.573211 0.679907 -7.54254 -2.57934 -0.0483057 -15.4798 -5.1334 0.44656 0.205937 -1.0974 -0.140892 -13.8618 -4.61482 -0.892254 -21.8412 -7.13704 -1.99526 0.144431 -0.849017 -0.445501 -13.4289 -5.01105 -1.34806 -23.3975 -6.35413 -1.70032 -0.209578 -0.95636 -1.92959 -13.2414 -4.73505 -1.67341 -4.87982 9.82397 7.28955 0.772679 -0.692703 -0.801189 3.64876 -8.92706 -2.49225 -42.107 -57.5809 16.2998 165.313 27.7023 -144.095 0.76403 -75.8434 13.8402 -2.67912 -19.2783 0.659321 28.4974 -80.2128 21.8147 -179.114 49.5934 177.903 -28.1237 -35.3264 -24.5605 1.28903 -9.54816 0.107656 
2.62102 -61.1583 -11.6537 0 0 -0 18.9321 -7.81897 8.70194 3.09859 21.2735 -1.57407 7.7837 42.3987 -5.081 7.78362 42.3984 -5.08093 4.9107 -8.63684 -4.65115 -5.34895 -22.953 -7.40953 20.3865 -11.8312 -1.24205 44.1923 -34.3155 20.7362 83.72 -68.1737 125.248 -17.4417 -49.3777 -54.307 16.633 -16.7704 4.52887 -0.512789 -5.47456 -2.69164 14.6327 -8.79617 1.91268 19.925 -12.201 7.77646 -1.11939 -6.5075 0.571054 16.8799 -9.97356 3.12929 18.8599 -8.94746 2.97307 -1.18888 -7.92849 1.70269 16.7342 -10.7489 3.76823 20.2182 -6.35922 2.42759 -0.129754 -8.4735 5.61542 16.5653 -10.3677 4.2075 -9.51342 -7.79646 -2.92462 -2.76413 -0.176492 0.333049 -4.03966 -5.44882 0.935043 -23.7258 -0.188476 13.5967 -101.374 -18.3037 -54.435 -2.15514 -31.3473 -11.0693 -18.388 3.19617 -39.0313 -9.10143 0.205597 4.06796 -0.0483991 -0.451297 0.528703 -6.3938 -2.18753 -0.0190239 -12.8225 -4.26779 1.17797 0.188649 -0.998331 -0.134242 -11.8397 -3.95989 -0.693256 -18.1913 -6.21053 -1.65364 0.140141 -0.819717 -0.431665 -11.5519 -4.33591 -1.09039 -19.2234 -5.89962 -1.70047 -0.204258 -0.930924 -1.88495 -11.3876 -4.09996 -1.37194 -5.59309 9.81217 7.14611 0.772691 -0.692727 -0.801184 3.22745 -7.84631 -2.22071 -40.5219 -55.1797 20.207 165.778 26.3384 -143.228 6.2739 -76.7405 19.344 -2.57755 -18.5497 0.65039 26.9991 -78.8712 19.5522 -179.098 48.0054 177.604 -27.548 -34.545 -24.8203 1.38459 -10.2414 0.124066 
2.5635 -61.7964 -11.9092 0 0 -0 19.1018 -9.21798 9.0693 2.9346 21.3666 -1.50866 7.39549 42.5984 -4.86834 7.39539 42.598 -4.86827 5.00487 -8.39094 -4.88604 -5.68014 -23.6214 -7.16428 19.9077 -11.8981 -1.01212 43.9117 -34.5117 20.3783 84.2665 -68.4618 125.805 -18.1313 -49.7819 -54.7854 16.6938 -16.9209 4.60975 -0.516717 -5.50536 -2.71196 14.7128 -8.84178 1.92911 20.0418 -12.2703 7.87396 -1.12475 -6.53744 0.569045 16.9609 -10.0176 3.15094 18.954 -8.97255 2.98451 -1.19485 -7.96747 1.70457 16.8137 -10.7953 3.79302 20.3317 -6.35623 2.42386 -0.130185 -8.51307 5.63328 16.6705 -10.4291 4.24968 -9.67819 -7.91193 -2.9412 -2.76414 -0.176493 0.333057 -4.03965 -5.44881 0.93506 -23.8028 -0.200044 13.9665 -100.583 -17.5409 -54.2991 -2.65334 -32.7237 -13.3312 -14.9079 1.86702 -41.2061 -8.2776 1.23644 4.60136 -0.0365759 -0.327653 0.378863 -5.24552 -1.79521 0.00239234 -10.2995 -3.42097 1.79858 0.170544 -0.894636 -0.125983 -9.902 -3.32487 -0.524236 -14.7596 -5.27999 -1.39593 0.135208 -0.785989 -0.415589 -9.75041 -3.6787 -0.863732 -15.3152 -5.37096 -1.75646 -0.198933 -0.905628 -1.84027 -9.5386 -3.45553 -1.09143 -6.22116 9.80419 7.02227 0.772689 -0.6927 -0.801164 2.81844 -6.80893 -1.95267 -40.2651 -54.9779 21.3886 166.047 25.6131 -142.768 9.61225 -77.1137 22.5326 -2.44042 -17.5629 0.636262 27.817 -78.9239 19.9684 -179.114 47.4168 177.584 -27.3104 -33.532 -24.8658 1.46891 -10.8505 0.139506 
